<svg width="306" height="99" viewBox="0 0 306 99" fill="none" xmlns="http://www.w3.org/2000/svg">
<path d="M105.567 21.9166C109.687 21.9166 113.287 22.7332 116.368 24.3664C119.449 25.9995 121.824 28.3007 123.495 31.2701C125.202 34.2023 126.056 37.5985 126.056 41.4587C126.056 45.2817 125.202 48.6779 123.495 51.6473C121.824 54.6166 119.43 56.9179 116.312 58.551C113.232 60.1842 109.65 61.0007 105.567 61.0007H90.9245V21.9166H105.567ZM104.955 52.7608C108.555 52.7608 111.357 51.7772 113.362 49.81C115.366 47.8428 116.368 45.059 116.368 41.4587C116.368 37.8583 115.366 35.056 113.362 33.0517C111.357 31.0474 108.555 30.0452 104.955 30.0452H100.445V52.7608H104.955Z" fill="#D64741"/>
<path d="M142.456 53.6516H154.927V61.0007H132.935V21.9166H142.456V53.6516ZM172.774 21.9166V61.0007H163.254V21.9166H172.774ZM194.817 61.3905C191.959 61.3905 189.398 60.9265 187.134 59.9986C184.87 59.0707 183.051 57.6973 181.678 55.8786C180.342 54.0599 179.637 51.87 179.562 49.3089H189.695C189.844 50.7565 190.345 51.87 191.198 52.6494C192.052 53.3918 193.166 53.7629 194.539 53.7629C195.949 53.7629 197.063 53.4474 197.879 52.8165C198.696 52.1484 199.104 51.239 199.104 50.0884C199.104 49.1233 198.77 48.3253 198.102 47.6943C197.471 47.0633 196.673 46.5437 195.708 46.1354C194.78 45.7271 193.444 45.2632 191.7 44.7435C189.176 43.9641 187.116 43.1846 185.52 42.4052C183.924 41.6257 182.55 40.4751 181.4 38.9533C180.249 37.4315 179.674 35.4457 179.674 32.996C179.674 29.3586 180.991 26.5191 183.627 24.4777C186.262 22.3992 189.695 21.3599 193.927 21.3599C198.232 21.3599 201.703 22.3992 204.338 24.4777C206.973 26.5191 208.384 29.3771 208.569 33.0517H198.269C198.195 31.7897 197.731 30.8061 196.877 30.1009C196.024 29.3586 194.929 28.9874 193.592 28.9874C192.442 28.9874 191.514 29.3029 190.809 29.9339C190.103 30.5278 189.751 31.4 189.751 32.5506C189.751 33.8126 190.345 34.7962 191.532 35.5014C192.72 36.2066 194.576 36.9675 197.1 37.7841C199.624 38.6378 201.665 39.4544 203.224 40.2338C204.82 41.0133 206.194 42.1453 207.344 43.63C208.495 45.1147 209.07 47.0262 209.07 49.3646C209.07 51.5916 208.495 53.6145 207.344 55.4332C206.231 57.2519 204.598 58.6995 202.445 59.7759C200.292 60.8523 197.75 61.3905 194.817 61.3905ZM243.491 21.9166V29.5442H233.135V61.0007H223.615V29.5442H213.259V21.9166H243.491Z" fill="white"/>
<path d="M23.3836 61L15.255 46.246H12.9724V61H3.45187V21.9159H19.4307C22.5114 21.9159 25.1281 22.4541 27.2809 23.5305C29.4708 24.6069 31.104 26.0916 32.1804 27.9845C33.2567 29.8404 33.7949 31.9189 33.7949 34.2202C33.7949 36.8183 33.0526 39.1381 31.5679 41.1796C30.1204 43.221 27.9676 44.6686 25.1096 45.5223L34.129 61H23.3836ZM12.9724 39.5093H18.8739C20.6184 39.5093 21.9175 39.0825 22.7712 38.2288C23.662 37.3751 24.1074 36.1688 24.1074 34.6099C24.1074 33.1252 23.662 31.956 22.7712 31.1023C21.9175 30.2487 20.6184 29.8218 18.8739 29.8218H12.9724V39.5093Z" fill="#D64741"/>
<path fill-rule="evenodd" clip-rule="evenodd" d="M51.5859 26.4463C51.5859 24.5245 53.1439 22.9666 55.0656 22.9666H80.1195C82.0413 22.9666 83.5993 24.5245 83.5993 26.4463C83.5993 28.3681 82.0413 29.926 80.1195 29.926H55.0656C53.1439 29.926 51.5859 28.3681 51.5859 26.4463ZM51.5859 41.757C51.5859 39.8352 53.1439 38.2773 55.0656 38.2773H80.1195C82.0413 38.2773 83.5993 39.8352 83.5993 41.757C83.5993 43.6788 82.0413 45.2367 80.1195 45.2367H55.0656C53.1439 45.2367 51.5859 43.6788 51.5859 41.757ZM51.5859 57.0677C51.5859 55.1459 53.1439 53.588 55.0656 53.588H80.1195C82.0413 53.588 83.5993 55.1459 83.5993 57.0677C83.5993 58.9895 82.0413 60.5474 80.1195 60.5474H55.0656C53.1439 60.5474 51.5859 58.9895 51.5859 57.0677Z" fill="#D64741"/>
<circle cx="43.9374" cy="26.4437" r="4.17565" fill="#D64741"/>
<circle cx="43.9374" cy="41.7577" r="4.17565" fill="#D64741"/>
<circle cx="43.9374" cy="57.0686" r="4.17565" fill="#D64741"/>
</svg>
