<svg width="32" height="32" viewBox="0 0 32 32" fill="none" xmlns="http://www.w3.org/2000/svg">
<ellipse cx="10" cy="16.8992" rx="4" ry="4.2" stroke="black" stroke-width="2"/>
<ellipse cx="22" cy="16.8992" rx="4" ry="4.2" stroke="black" stroke-width="2"/>
<path d="M11.7038 13.098L11.225 12.2202L9.53664 13.1412L11.2603 13.9943L11.7038 13.098ZM20.2973 13.0979L20.7408 13.9942L22.4649 13.1411L20.7762 12.22L20.2973 13.0979ZM24.5502 20.1355L25.4727 20.5214L23.894 19.3809L24.5502 20.1355ZM7.45117 20.136L8.10722 19.3813L6.52865 20.5219L7.45117 20.136ZM16.0007 11C14.2781 11 12.6528 11.4413 11.225 12.2202L12.1827 13.9759C13.3271 13.3516 14.6244 13 16.0007 13V11ZM20.7762 12.22C19.3484 11.4412 17.7232 11 16.0007 11V13C17.377 13 18.6742 13.3516 19.8185 13.9758L20.7762 12.22ZM19.0003 16.8993C19.0003 15.5943 19.7288 14.4949 20.7408 13.9942L19.8539 12.2016C18.1509 13.0442 17.0003 14.8442 17.0003 16.8993H19.0003ZM22.0003 20.0993C20.3889 20.0993 19.0003 18.7132 19.0003 16.8993H17.0003C17.0003 19.7247 19.1935 22.0993 22.0003 22.0993V20.0993ZM23.894 19.3809C23.3727 19.8342 22.714 20.0993 22.0003 20.0993V22.0993C23.2247 22.0993 24.3432 21.6408 25.2064 20.8901L23.894 19.3809ZM16.0006 26.9984C20.2607 26.9984 23.8876 24.3111 25.4727 20.5214L23.6276 19.7496C22.3249 22.864 19.3824 24.9984 16.0006 24.9984V26.9984ZM6.52865 20.5219C8.11393 24.3114 11.7407 26.9984 16.0006 26.9984V24.9984C12.6189 24.9984 9.67649 22.8642 8.3737 19.7501L6.52865 20.5219ZM10.0003 20.0992C9.28685 20.0992 8.62836 19.8343 8.10722 19.3813L6.79512 20.8907C7.65824 21.641 8.77635 22.0992 10.0003 22.0992V20.0992ZM13.0003 16.8992C13.0003 18.7131 11.6118 20.0992 10.0003 20.0992V22.0992C12.8072 22.0992 15.0003 19.7246 15.0003 16.8992H13.0003ZM11.2603 13.9943C12.272 14.4951 13.0003 15.5944 13.0003 16.8992H15.0003C15.0003 14.8443 13.8501 13.0445 12.1474 12.2018L11.2603 13.9943Z" fill="black"/>
<mask id="path-4-inside-1_739_1531" fill="white">
<ellipse cx="14" cy="22.1496" rx="1" ry="1.05"/>
</mask>
<ellipse cx="14" cy="22.1496" rx="1" ry="1.05" fill="black"/>
<path d="M13 22.1496C13 21.718 13.3569 21.1996 14 21.1996V25.1996C15.7477 25.1996 17 23.741 17 22.1496H13ZM14 21.1996C14.6431 21.1996 15 21.718 15 22.1496H11C11 23.741 12.2523 25.1996 14 25.1996V21.1996ZM15 22.1496C15 22.5812 14.6431 23.0996 14 23.0996V19.0996C12.2523 19.0996 11 20.5582 11 22.1496H15ZM14 23.0996C13.3569 23.0996 13 22.5812 13 22.1496H17C17 20.5582 15.7477 19.0996 14 19.0996V23.0996Z" fill="black" mask="url(#path-4-inside-1_739_1531)"/>
<mask id="path-6-inside-2_739_1531" fill="white">
<ellipse cx="18" cy="22.1496" rx="1" ry="1.05"/>
</mask>
<ellipse cx="18" cy="22.1496" rx="1" ry="1.05" fill="black"/>
<path d="M17 22.1496C17 21.718 17.3569 21.1996 18 21.1996V25.1996C19.7477 25.1996 21 23.741 21 22.1496H17ZM18 21.1996C18.6431 21.1996 19 21.718 19 22.1496H15C15 23.741 16.2523 25.1996 18 25.1996V21.1996ZM19 22.1496C19 22.5812 18.6431 23.0996 18 23.0996V19.0996C16.2523 19.0996 15 20.5582 15 22.1496H19ZM18 23.0996C17.3569 23.0996 17 22.5812 17 22.1496H21C21 20.5582 19.7477 19.0996 18 19.0996V23.0996Z" fill="black" mask="url(#path-6-inside-2_739_1531)"/>
<mask id="path-8-inside-3_739_1531" fill="white">
<ellipse cx="22" cy="16.8996" rx="1" ry="1.05"/>
</mask>
<ellipse cx="22" cy="16.8996" rx="1" ry="1.05" fill="black"/>
<path d="M21 16.8996C21 16.468 21.3569 15.9496 22 15.9496V19.9496C23.7477 19.9496 25 18.491 25 16.8996H21ZM22 15.9496C22.6431 15.9496 23 16.468 23 16.8996H19C19 18.491 20.2523 19.9496 22 19.9496V15.9496ZM23 16.8996C23 17.3312 22.6431 17.8496 22 17.8496V13.8496C20.2523 13.8496 19 15.3082 19 16.8996H23ZM22 17.8496C21.3569 17.8496 21 17.3312 21 16.8996H25C25 15.3082 23.7477 13.8496 22 13.8496V17.8496Z" fill="black" mask="url(#path-8-inside-3_739_1531)"/>
<mask id="path-10-inside-4_739_1531" fill="white">
<ellipse cx="10" cy="16.8996" rx="1" ry="1.05"/>
</mask>
<ellipse cx="10" cy="16.8996" rx="1" ry="1.05" fill="black"/>
<path d="M9 16.8996C9 16.468 9.35688 15.9496 10 15.9496V19.9496C11.7477 19.9496 13 18.491 13 16.8996H9ZM10 15.9496C10.6431 15.9496 11 16.468 11 16.8996H7C7 18.491 8.25231 19.9496 10 19.9496V15.9496ZM11 16.8996C11 17.3312 10.6431 17.8496 10 17.8496V13.8496C8.25231 13.8496 7 15.3082 7 16.8996H11ZM10 17.8496C9.35688 17.8496 9 17.3312 9 16.8996H13C13 15.3082 11.7477 13.8496 10 13.8496V17.8496Z" fill="black" mask="url(#path-10-inside-4_739_1531)"/>
</svg>
