<svg width="22" height="16" viewBox="0 0 22 16" fill="none" xmlns="http://www.w3.org/2000/svg">
<circle cx="5" cy="5.66602" r="4" stroke="#0E1011" stroke-width="2"/>
<circle cx="17" cy="5.66602" r="4" stroke="#0E1011" stroke-width="2"/>
<path d="M6.7031 2.0457L6.24209 1.15831L4.44997 2.08934L6.2768 2.95028L6.7031 2.0457ZM15.2967 2.04572L15.723 2.95029L17.5498 2.08935L15.7577 1.15833L15.2967 2.04572ZM19.5499 8.74797L20.4655 9.14999L18.912 7.97785L19.5499 8.74797ZM2.44979 8.74786L3.08773 7.97777L1.53415 9.14986L2.44979 8.74786ZM10.9999 0C9.2862 0 7.66721 0.417936 6.24209 1.15831L7.16411 2.93309C8.31116 2.33719 9.61468 2 10.9999 2V0ZM15.7577 1.15833C14.3326 0.417944 12.7136 0 10.9999 0V2C12.3851 2 13.6886 2.33719 14.8357 2.93311L15.7577 1.15833ZM13.9999 5.66602C13.9999 4.46753 14.7027 3.43116 15.723 2.95029L14.8704 1.14114C13.176 1.93969 11.9999 3.6645 11.9999 5.66602H13.9999ZM16.9999 8.66602C15.3431 8.66602 13.9999 7.32287 13.9999 5.66602H11.9999C11.9999 8.42744 14.2385 10.666 16.9999 10.666V8.66602ZM18.912 7.97785C18.3925 8.40818 17.7276 8.66602 16.9999 8.66602V10.666C18.2104 10.666 19.3228 10.2346 20.1878 9.51809L18.912 7.97785ZM10.9999 15.3327C15.2322 15.3327 18.868 12.7884 20.4655 9.14999L18.6343 8.34595C17.3443 11.2839 14.4102 13.3327 10.9999 13.3327V15.3327ZM1.53415 9.14986C3.1316 12.7883 6.76749 15.3327 10.9999 15.3327V13.3327C7.58946 13.3327 4.65536 11.2839 3.36543 8.34585L1.53415 9.14986ZM4.99991 8.66602C4.27215 8.66602 3.60726 8.40815 3.08773 7.97777L1.81185 9.51795C2.67686 10.2345 3.78931 10.666 4.99991 10.666V8.66602ZM7.99991 5.66602C7.99991 7.32287 6.65676 8.66602 4.99991 8.66602V10.666C7.76133 10.666 9.99991 8.42744 9.99991 5.66602H7.99991ZM6.2768 2.95028C7.29713 3.43114 7.99991 4.46751 7.99991 5.66602H9.99991C9.99991 3.66448 8.82382 1.93966 7.12941 1.14112L6.2768 2.95028Z" fill="#0E1011"/>
<circle cx="9" cy="10.666" r="1" fill="#0E1011"/>
<circle cx="13" cy="10.666" r="1" fill="#0E1011"/>
<circle cx="17" cy="5.66602" r="1" fill="#0E1011"/>
<circle cx="5" cy="5.66602" r="1" fill="#0E1011"/>
</svg>
