<svg width="28" height="27" viewBox="0 0 28 27" fill="none" xmlns="http://www.w3.org/2000/svg">
<path d="M11.7841 19.2966L7.00019 24.1046C5.53209 25.5801 3.14489 25.5831 1.67308 24.1113V24.1113L5.47359 20.3108" stroke="#0E1011" stroke-width="2"/>
<mask id="path-2-inside-1_710_2799" fill="white">
<path d="M24.7373 4L26.8838 6.14645C27.1987 6.46143 26.9757 7 26.5302 7H24.7373V4Z"/>
</mask>
<path d="M24.7373 4L26.8838 6.14645C27.1987 6.46143 26.9757 7 26.5302 7H24.7373V4Z" fill="#0E1011"/>
<path d="M24.7373 4L26.1515 2.58579L22.7373 -0.828427V4H24.7373ZM24.7373 7H22.7373V9H24.7373V7ZM23.3231 5.41421L25.4695 7.56066L28.298 4.73223L26.1515 2.58579L23.3231 5.41421ZM26.5302 5H24.7373V9H26.5302V5ZM26.7373 7V4H22.7373V7H26.7373ZM25.4695 7.56066C24.5246 6.61572 25.1938 5 26.5302 5V9C28.7575 9 29.8729 6.30714 28.298 4.73223L25.4695 7.56066Z" fill="#0E1011" mask="url(#path-2-inside-1_710_2799)"/>
<path d="M9.7373 19H13.7373C19.2602 19 23.7373 14.5229 23.7373 9V6.68421M10.2373 10L17.7446 2.08318C18.4004 1.39165 19.3115 1 20.2645 1H20.8952C22.4649 1 23.7373 2.27245 23.7373 3.84211V3.84211M23.7373 6.68421V5.26316V3.84211M23.7373 6.68421V3.84211" stroke="#0E1011" stroke-width="2"/>
<path d="M3.08596 19.6968C2.50605 19.4566 1.96069 19.1435 1.46266 18.766L11.7356 8.49311C12.1131 8.99115 12.4262 9.53651 12.6664 10.1164C13.0349 11.006 13.2245 11.9595 13.2245 12.9225C13.2245 13.8854 13.0349 14.8389 12.6664 15.7285C12.2979 16.6181 11.7578 17.4265 11.0769 18.1073C10.396 18.7882 9.58767 19.3283 8.69804 19.6968C7.80842 20.0653 6.85492 20.255 5.892 20.255C4.92908 20.255 3.97558 20.0653 3.08596 19.6968Z" stroke="#0E1011" stroke-width="2"/>
<path d="M15.4039 19V24.6471H18.2373" stroke="#0E1011" stroke-width="2"/>
<circle cx="20.4873" cy="4.75" r="0.75" fill="#0E1011"/>
</svg>
