<svg width="27" height="23" viewBox="0 0 27 23" fill="none" xmlns="http://www.w3.org/2000/svg">
<circle cx="7" cy="10" r="1" fill="#0E1011"/>
<path d="M13 4.5L17.3878 2.30612C19.0209 1.48953 20.8043 3.1087 20.1489 4.81294L19.5 6.5" stroke="#0E1011" stroke-width="2"/>
<path d="M12 18L16.9829 20.3603C18.6143 21.1331 20.3537 19.5197 19.7057 17.8349L19 16" stroke="#0E1011" stroke-width="2"/>
<path d="M1 11.0006L0.264579 10.323C-0.0789737 10.6959 -0.0891205 11.2668 0.240967 11.6517L1 11.0006ZM3.37285 8.42534L2.63743 7.74773L3.37285 8.42534ZM3.40988 13.8102L2.65084 14.4613H2.65084L3.40988 13.8102ZM21.0036 14.4829L21.7107 15.19L21.7107 15.19L21.0036 14.4829ZM21.0898 14.3967L21.7737 13.6671C21.3799 13.298 20.7643 13.3079 20.3827 13.6896L21.0898 14.3967ZM23.4741 16.632L24.158 15.9024L23.4741 16.632ZM23.4741 6.36804L22.7901 5.63851V5.63851L23.4741 6.36804ZM21.1545 8.54267L20.4474 9.24978C20.829 9.63143 21.4447 9.64135 21.8384 9.27221L21.1545 8.54267ZM20.6832 8.07138L19.9761 8.77848L19.9761 8.77848L20.6832 8.07138ZM1.73542 11.6782L4.10827 9.10295L2.63743 7.74773L0.264579 10.323L1.73542 11.6782ZM4.16891 13.1591L1.75903 10.3496L0.240967 11.6517L2.65084 14.4613L4.16891 13.1591ZM20.2965 13.7758C15.7666 18.3056 8.33962 18.0216 4.16891 13.1591L2.65084 14.4613C7.57987 20.2078 16.3573 20.5434 21.7107 15.19L20.2965 13.7758ZM20.3827 13.6896L20.2964 13.7758L21.7107 15.19L21.7969 15.1038L20.3827 13.6896ZM20.4058 15.1262L22.7901 17.3615L24.158 15.9024L21.7737 13.6671L20.4058 15.1262ZM22.7901 17.3615C24.3868 18.8584 27 17.7262 27 15.5377H25C25 15.9754 24.4774 16.2018 24.158 15.9024L22.7901 17.3615ZM27 15.5377V7.46235H25V15.5377H27ZM27 7.46235C27 5.27375 24.3868 4.14163 22.7901 5.63851L24.158 7.09758C24.4774 6.7982 25 7.02463 25 7.46235H27ZM22.7901 5.63851L20.4705 7.81313L21.8384 9.27221L24.158 7.09758L22.7901 5.63851ZM19.9761 8.77848L20.4474 9.24978L21.8616 7.83556L21.3903 7.36427L19.9761 8.77848ZM4.10827 9.10295C8.34438 4.50543 15.5556 4.35798 19.9761 8.77848L21.3903 7.36427C16.1661 2.14003 7.64373 2.3143 2.63743 7.74773L4.10827 9.10295Z" fill="#0E1011"/>
<path d="M10.5 4V4C12.103 8.20405 12.0014 12.8678 10.2169 16.9981L10 17.5" stroke="#0E1011" stroke-width="2"/>
</svg>
