<svg width="44" height="50" viewBox="0 0 44 50" fill="none" xmlns="http://www.w3.org/2000/svg">
<g clip-path="url(#clip0_710_3605)">
<path d="M15.085 41.9944H3V6.54492H38.4495V18.63" stroke="black" stroke-width="3" stroke-linecap="round" stroke-linejoin="round"/>
<path d="M9 3V10" stroke="black" stroke-width="3" stroke-linecap="round"/>
<path d="M32 3V10" stroke="black" stroke-width="3" stroke-linecap="round"/>
<path d="M3 14.7266L38.4495 14.7266" stroke="black" stroke-width="3"/>
<path fill-rule="evenodd" clip-rule="evenodd" d="M34.9798 36.351C37.0403 36.5737 39.1601 35.7216 40.4722 33.9289C42.4292 31.2548 41.8479 27.5006 39.1739 25.5435C36.4998 23.5865 32.7455 24.1678 30.7885 26.8418C29.4773 28.6334 29.3055 30.9099 30.1391 32.8059L27.3019 36.6827L32.1437 40.2262L34.9798 36.351Z" fill="white"/>
<path d="M34.9798 36.351L35.141 34.8597C34.6085 34.8021 34.0857 35.0329 33.7694 35.4651L34.9798 36.351ZM30.1391 32.8059L31.3496 33.6918C31.6657 33.2598 31.7277 32.6921 31.5123 32.2021L30.1391 32.8059ZM27.3019 36.6827L26.0914 35.7968C25.6022 36.4653 25.7475 37.4039 26.416 37.8931L27.3019 36.6827ZM32.1437 40.2262L31.2578 41.4367C31.5789 41.6716 31.9801 41.7694 32.3732 41.7085C32.7664 41.6477 33.1192 41.4331 33.3542 41.1121L32.1437 40.2262ZM39.2617 33.043C38.2788 34.386 36.6909 35.0272 35.141 34.8597L34.8186 37.8423C37.3898 38.1203 40.0415 37.0572 41.6826 34.8148L39.2617 33.043ZM38.288 26.754C40.2935 28.2218 40.7295 31.0375 39.2617 33.043L41.6826 34.8148C44.1289 31.4722 43.4023 26.7794 40.0597 24.3331L38.288 26.754ZM31.999 27.7277C33.4667 25.7222 36.2824 25.2862 38.288 26.754L40.0597 24.3331C36.7172 21.8868 32.0243 22.6134 29.578 25.9559L31.999 27.7277ZM31.5123 32.2021C30.8852 30.776 31.0167 29.0699 31.999 27.7277L29.578 25.9559C27.9379 28.197 27.7258 31.0438 28.766 33.4096L31.5123 32.2021ZM28.5123 37.5686L31.3496 33.6918L28.9287 31.92L26.0914 35.7968L28.5123 37.5686ZM33.0296 39.0158L28.1878 35.4722L26.416 37.8931L31.2578 41.4367L33.0296 39.0158ZM33.7694 35.4651L30.9333 39.3403L33.3542 41.1121L36.1903 37.2369L33.7694 35.4651Z" fill="black"/>
<circle cx="25.5921" cy="44.1039" r="4" transform="rotate(36.1988 25.5921 44.1039)" stroke="black" stroke-width="3"/>
<rect x="23.1598" y="33.0326" width="17" height="5" transform="rotate(36.1988 23.1598 33.0326)" fill="white" stroke="black" stroke-width="3" stroke-linejoin="round"/>
</g>
<defs>
<clipPath id="clip0_710_3605">
<rect width="44" height="50" fill="white"/>
</clipPath>
</defs>
</svg>
