<svg width="47" height="53" viewBox="0 0 47 53" fill="none" xmlns="http://www.w3.org/2000/svg">
<path d="M2.00146 51.1426H45.3954" stroke="black" stroke-width="3" stroke-linecap="round"/>
<path d="M11.2976 51.1434V43.3945" stroke="black" stroke-width="3"/>
<path d="M20.6472 36.4201C20.6472 41.1552 16.8087 44.9937 12.0736 44.9937C7.33853 44.9937 3.5 41.1552 3.5 36.4201C3.5 33.8939 4.56234 28.8602 6.34226 24.4322C7.22737 22.2303 8.24934 20.283 9.32989 18.9141C10.4531 17.4912 11.3912 16.998 12.0736 16.998C12.756 16.998 13.6941 17.4912 14.8173 18.9141C15.8978 20.283 16.9198 22.2303 17.8049 24.4322C19.5848 28.8602 20.6472 33.8939 20.6472 36.4201Z" fill="white" stroke="black" stroke-width="3"/>
<path d="M37.6445 51.1434V43.3945" stroke="black" stroke-width="3"/>
<path d="M18.9771 14.2026C20.8052 10.1245 26.5947 10.1245 28.4228 14.2026L34.237 27.1728C37.6618 34.8126 32.0722 43.4437 23.6999 43.4437C15.3276 43.4437 9.73809 34.8126 13.1628 27.1728L18.9771 14.2026Z" fill="white" stroke="black" stroke-width="3"/>
<path d="M23.6992 51.1422V44.9431V39.5189V35.6444M23.6992 26.3457V29.4453V35.6444M23.6992 35.6444L19.0498 30.9951" stroke="black" stroke-width="3" stroke-linecap="round"/>
<path d="M43.8963 37.3888C43.8963 40.6974 41.1346 43.444 37.6474 43.444C34.1601 43.444 31.3984 40.6974 31.3984 37.3888C31.3984 35.5646 32.1972 31.843 33.5548 28.55C34.2283 26.9165 34.9976 25.4935 35.797 24.5061C36.6352 23.4708 37.2694 23.1973 37.6474 23.1973C38.0253 23.1973 38.6596 23.4708 39.4978 24.5061C40.2971 25.4935 41.0664 26.9165 41.7399 28.55C43.0975 31.843 43.8963 35.5646 43.8963 37.3888Z" fill="white" stroke="black" stroke-width="3"/>
</svg>
