<svg width="26" height="28" viewBox="0 0 26 28" fill="none" xmlns="http://www.w3.org/2000/svg">
<rect x="6" y="6" width="14" height="20" rx="7" stroke="#0E1011" stroke-width="2"/>
<path d="M6 20V20C3.79086 20 2 21.7909 2 24V28" stroke="#0E1011" stroke-width="2"/>
<path d="M20 20V20C22.2091 20 24 21.7909 24 24V28" stroke="#0E1011" stroke-width="2"/>
<path d="M20 12V12C22.2091 12 24 10.2091 24 8V4" stroke="#0E1011" stroke-width="2"/>
<path d="M6 12V12C3.79086 12 2 10.2091 2 8V4" stroke="#0E1011" stroke-width="2"/>
<path d="M5 16H0" stroke="#0E1011" stroke-width="2"/>
<path d="M26 16H21" stroke="#0E1011" stroke-width="2"/>
<path d="M6 12H13M20 12H13M13 12V26" stroke="#0E1011" stroke-width="2"/>
<path d="M18 0V2V2C18 4.20914 16.2091 6 14 6H12C9.79086 6 8 4.20914 8 2V2V0" stroke="#0E1011" stroke-width="2"/>
</svg>
