<svg width="48" height="41" viewBox="0 0 48 41" fill="none" xmlns="http://www.w3.org/2000/svg">
<path d="M26.64 2C37.3408 2 46 10.3775 46 20.7303C46 31.083 37.3408 39.4605 26.64 39.4605C15.9392 39.4605 7.28 32.7857 7.28 22.433V15.622M2 20.7303L7.28 15.622M7.28 15.622L12.56 20.7303" stroke="black" stroke-width="3" stroke-miterlimit="10" stroke-linecap="round" stroke-linejoin="round"/>
<path d="M27.2727 30.9124L26.2121 31.973C26.7979 32.5588 27.7476 32.5588 28.3334 31.973L27.2727 30.9124ZM32.6813 25.5039L33.7419 26.5645C34.3277 25.9787 34.3277 25.029 33.7419 24.4432L32.6813 25.5039ZM32.6797 25.5023L31.6191 24.4417C31.3378 24.723 31.1797 25.1045 31.1797 25.5023C31.1797 25.9001 31.3378 26.2817 31.6191 26.563L32.6797 25.5023ZM33.8388 24.3433L34.8994 25.4039L33.8388 24.3433ZM33.8388 18.9347L34.8994 17.8741L34.8994 17.8741L33.8388 18.9347ZM28.4303 18.9347L27.3696 17.8741L28.4303 18.9347ZM27.2712 20.0938L26.2105 21.1545C26.7963 21.7402 27.7461 21.7402 28.3319 21.1545L27.2712 20.0938ZM21.7659 23.2842C20.8582 22.3765 20.8582 20.9048 21.7659 19.997L19.6446 17.8757C17.5653 19.955 17.5653 23.3262 19.6446 25.4056L21.7659 23.2842ZM28.3334 29.8517L21.7659 23.2842L19.6446 25.4056L26.2121 31.973L28.3334 29.8517ZM31.6206 24.4432L26.2121 29.8517L28.3334 31.973L33.7419 26.5645L31.6206 24.4432ZM31.6191 26.563L31.6206 26.5645L33.7419 24.4432L33.7404 24.4417L31.6191 26.563ZM32.7781 23.2826L31.6191 24.4417L33.7404 26.563L34.8994 25.4039L32.7781 23.2826ZM32.7781 19.9954C33.6859 20.9031 33.6859 22.3749 32.7781 23.2826L34.8994 25.4039C36.9788 23.3246 36.9788 19.9534 34.8994 17.8741L32.7781 19.9954ZM29.4909 19.9954C30.3987 19.0877 31.8704 19.0877 32.7781 19.9954L34.8994 17.8741C32.8201 15.7948 29.4489 15.7948 27.3696 17.8741L29.4909 19.9954ZM28.3319 21.1545L29.4909 19.9954L27.3696 17.8741L26.2105 19.0331L28.3319 21.1545ZM25.0531 19.997L26.2105 21.1545L28.3319 19.0331L27.1744 17.8757L25.0531 19.997ZM21.7659 19.997C22.6736 19.0893 24.1454 19.0893 25.0531 19.997L27.1744 17.8757C25.0951 15.7964 21.7239 15.7964 19.6446 17.8757L21.7659 19.997Z" fill="black"/>
</svg>
