<svg width="32" height="32" viewBox="0 0 32 32" fill="none" xmlns="http://www.w3.org/2000/svg">
<ellipse cx="12.6133" cy="15" rx="0.963851" ry="1" fill="black"/>
<ellipse cx="19.3594" cy="15" rx="0.963851" ry="1" fill="black"/>
<ellipse cx="17.9639" cy="22" rx="0.963851" ry="1" fill="black"/>
<ellipse cx="13.9639" cy="22" rx="0.963851" ry="1" fill="black"/>
<mask id="path-5-outside-1_814_1555" maskUnits="userSpaceOnUse" x="19.7002" y="11.0859" width="6" height="7" fill="black">
<rect fill="white" x="19.7002" y="11.0859" width="6" height="7"/>
<path fill-rule="evenodd" clip-rule="evenodd" d="M22.7002 14.9332C22.9993 14.8468 23.2006 14.6851 23.2006 14.5C23.2006 14.3278 23.0264 14.1759 22.7613 14.0859L22.7002 14.9332Z"/>
</mask>
<path fill-rule="evenodd" clip-rule="evenodd" d="M22.7002 14.9332C22.9993 14.8468 23.2006 14.6851 23.2006 14.5C23.2006 14.3278 23.0264 14.1759 22.7613 14.0859L22.7002 14.9332Z" fill="white"/>
<path d="M22.7002 14.9332L20.7054 14.7893L20.4989 17.6511L23.2554 16.8546L22.7002 14.9332ZM22.7613 14.0859L23.4039 12.192L20.9528 11.3605L20.7665 13.942L22.7613 14.0859ZM23.2554 16.8546C23.5858 16.7591 23.9911 16.5884 24.3559 16.2791C24.7189 15.9714 25.2006 15.3743 25.2006 14.5H21.2006C21.2006 13.8108 21.5816 13.3871 21.7692 13.2281C21.9586 13.0675 22.1137 13.0209 22.145 13.0118L23.2554 16.8546ZM25.2006 14.5C25.2006 13.689 24.7827 13.1115 24.4366 12.7922C24.0951 12.4771 23.7127 12.2967 23.4039 12.192L22.1188 15.9799C22.075 15.9651 21.9122 15.9056 21.7242 15.732C21.5313 15.5541 21.2006 15.1388 21.2006 14.5H25.2006ZM20.7665 13.942L20.7054 14.7893L24.695 15.0772L24.7561 14.2299L20.7665 13.942Z" fill="black" mask="url(#path-5-outside-1_814_1555)"/>
<mask id="path-7-outside-2_814_1555" maskUnits="userSpaceOnUse" x="6.25" y="11.0859" width="6" height="7" fill="black">
<rect fill="white" x="6.25" y="11.0859" width="6" height="7"/>
<path fill-rule="evenodd" clip-rule="evenodd" d="M9.25 14.9332C8.95089 14.8468 8.74962 14.6851 8.74962 14.5C8.74962 14.3278 8.92378 14.1759 9.18886 14.0859L9.25 14.9332Z"/>
</mask>
<path fill-rule="evenodd" clip-rule="evenodd" d="M9.25 14.9332C8.95089 14.8468 8.74962 14.6851 8.74962 14.5C8.74962 14.3278 8.92378 14.1759 9.18886 14.0859L9.25 14.9332Z" fill="white"/>
<path d="M9.25 14.9332L11.2448 14.7893L11.4513 17.6511L8.69483 16.8546L9.25 14.9332ZM9.18886 14.0859L8.54634 12.192L10.9974 11.3605L11.1837 13.942L9.18886 14.0859ZM8.69483 16.8546C8.36438 16.7591 7.95909 16.5884 7.59429 16.2791C7.2313 15.9714 6.74962 15.3743 6.74962 14.5H10.7496C10.7496 13.8108 10.3686 13.3871 10.181 13.2281C9.9916 13.0675 9.83651 13.0209 9.80517 13.0118L8.69483 16.8546ZM6.74962 14.5C6.74962 13.689 7.16747 13.1115 7.51364 12.7922C7.85507 12.4771 8.23747 12.2967 8.54634 12.192L9.83138 15.9799C9.87518 15.9651 10.038 15.9056 10.226 15.732C10.4189 15.5541 10.7496 15.1388 10.7496 14.5H6.74962ZM11.1837 13.942L11.2448 14.7893L7.25519 15.0772L7.19405 14.2299L11.1837 13.942Z" fill="black" mask="url(#path-7-outside-2_814_1555)"/>
<mask id="path-9-inside-3_814_1555" fill="white">
<path fill-rule="evenodd" clip-rule="evenodd" d="M14.2406 7.93555C11.3088 7.93555 9.00608 10.4465 9.25929 13.3674L9.74766 19.0009L10.1966 21.5737C10.2936 22.1295 10.6608 22.527 11.1125 22.7093C10.9455 22.2502 11.0424 21.6947 11.5196 21.3331L12.8925 20.2927C13.1431 20.1028 13.4489 20 13.7634 20H17.5842C17.9042 20 18.2154 20.1046 18.4704 20.2978L19.5106 21.0861C20.0952 21.5291 20.1674 22.2348 19.8982 22.7705C20.701 22.9866 21.6135 22.5001 21.7752 21.5737L22.2241 19.0009L22.7143 13.3691C22.9686 10.4477 20.6657 7.93555 17.7332 7.93555H14.2406Z"/>
</mask>
<path d="M9.25929 13.3674L7.26676 13.5401L9.25929 13.3674ZM9.74766 19.0009L7.75513 19.1736L7.76259 19.2596L7.77743 19.3447L9.74766 19.0009ZM10.1966 21.5737L8.22638 21.9175L8.22638 21.9175L10.1966 21.5737ZM11.1125 22.7093L10.3636 24.5638L14.5267 26.2449L12.992 22.0257L11.1125 22.7093ZM11.5196 21.3331L12.7275 22.9271L12.7275 22.9271L11.5196 21.3331ZM12.8925 20.2927L14.1004 21.8867L14.1004 21.8867L12.8925 20.2927ZM18.4704 20.2978L17.2625 21.8919L17.2625 21.8919L18.4704 20.2978ZM19.5106 21.0861L20.7185 19.4921L20.7185 19.4921L19.5106 21.0861ZM19.8982 22.7705L18.1111 21.8726L17.0099 24.0642L19.3784 24.7018L19.8982 22.7705ZM21.7752 21.5737L19.8049 21.2299L19.8049 21.2299L21.7752 21.5737ZM22.2241 19.0009L24.1943 19.3447L24.2091 19.2599L24.2166 19.1743L22.2241 19.0009ZM22.7143 13.3691L20.7219 13.1957L20.7219 13.1957L22.7143 13.3691ZM11.2518 13.1946C11.0999 11.4421 12.4815 9.93555 14.2406 9.93555V5.93555C10.136 5.93555 6.91227 9.45089 7.26676 13.5401L11.2518 13.1946ZM11.7402 18.8281L11.2518 13.1946L7.26676 13.5401L7.75513 19.1736L11.7402 18.8281ZM12.1668 21.2299L11.7179 18.6571L7.77743 19.3447L8.22638 21.9175L12.1668 21.2299ZM11.8614 20.8548C11.9273 20.8815 11.9962 20.9274 12.0552 20.9979C12.118 21.0729 12.1543 21.158 12.1668 21.2299L8.22638 21.9175C8.45093 23.2044 9.32002 24.1424 10.3636 24.5638L11.8614 20.8548ZM12.992 22.0257C13.0376 22.1511 13.056 22.3121 13.0097 22.4896C12.9591 22.6834 12.8459 22.8374 12.7275 22.9271L10.3117 19.739C9.05399 20.6921 8.80253 22.2096 9.23297 23.393L12.992 22.0257ZM12.7275 22.9271L14.1004 21.8867L11.6845 18.6987L10.3117 19.739L12.7275 22.9271ZM14.1004 21.8867C14.0034 21.9602 13.8851 22 13.7634 22V18C13.0128 18 12.2828 18.2454 11.6845 18.6987L14.1004 21.8867ZM13.7634 22H17.5842V18H13.7634V22ZM17.5842 22C17.4681 22 17.3551 21.962 17.2625 21.8919L19.6783 18.7038C19.0757 18.2472 18.3403 18 17.5842 18V22ZM17.2625 21.8919L18.3027 22.6801L20.7185 19.4921L19.6783 18.7038L17.2625 21.8919ZM18.3027 22.6801C18.198 22.6008 18.0955 22.4531 18.0606 22.2714C18.03 22.1124 18.0593 21.9758 18.1111 21.8726L21.6853 23.6684C22.3264 22.3925 22.1751 20.5958 20.7185 19.4921L18.3027 22.6801ZM19.8049 21.2299C19.8289 21.0923 19.9239 20.9605 20.0438 20.8882C20.1447 20.8273 20.2749 20.8007 20.4181 20.8392L19.3784 24.7018C21.2214 25.1978 23.3651 24.0969 23.7454 21.9175L19.8049 21.2299ZM20.2539 18.6571L19.8049 21.2299L23.7454 21.9175L24.1943 19.3447L20.2539 18.6571ZM20.7219 13.1957L20.2316 18.8274L24.2166 19.1743L24.7068 13.5426L20.7219 13.1957ZM17.7332 9.93555C19.4927 9.93555 20.8744 11.4428 20.7219 13.1957L24.7068 13.5426C25.0628 9.4525 21.8387 5.93555 17.7332 5.93555V9.93555ZM14.2406 9.93555H17.7332V5.93555H14.2406V9.93555Z" fill="black" mask="url(#path-9-inside-3_814_1555)"/>
<path d="M11.5304 20.7038C9.90673 22.1039 11.087 24.7561 13.2089 24.4935L15.8683 24.2176C15.9418 24.21 16.0159 24.2105 16.0892 24.2192L18.3986 24.493C20.6505 24.7601 21.8878 21.9505 20.1704 20.4696L19.1595 19.5978C18.7123 19.2121 18.1414 19 17.5509 19H14.4118C13.8276 19 13.2628 19.2099 12.8203 19.5914L11.5304 20.7038Z" stroke="black" stroke-width="2"/>
<path fill-rule="evenodd" clip-rule="evenodd" d="M8 7C8 6.44772 8.44771 6 9 6C9.55229 6 10 6.44772 10 7C10 7.78207 10.3129 8.50314 11 9.12384V11.5465C10.9839 11.5377 10.9678 11.5289 10.9519 11.52C9.16159 10.5254 8 8.98312 8 7Z" fill="black"/>
<path fill-rule="evenodd" clip-rule="evenodd" d="M21 9.12384V11.5465C21.0161 11.5377 21.0322 11.5289 21.0481 11.52C22.8384 10.5254 24 8.98312 24 7C24 6.44772 23.5523 6 23 6C22.4477 6 22 6.44772 22 7C22 7.78207 21.6871 8.50314 21 9.12384Z" fill="black"/>
</svg>
