<svg width="22" height="24" viewBox="0 0 22 24" fill="none" xmlns="http://www.w3.org/2000/svg">
<ellipse cx="7.61327" cy="11" rx="0.963851" ry="1" fill="black"/>
<ellipse cx="14.3594" cy="11" rx="0.963851" ry="1" fill="black"/>
<mask id="path-3-outside-1_793_491" maskUnits="userSpaceOnUse" x="0" y="0.00390625" width="8" height="11" fill="black">
<rect fill="white" y="0.00390625" width="8" height="11"/>
<path fill-rule="evenodd" clip-rule="evenodd" d="M2 2.12928C2 1.97279 2.22604 1.95916 2.27136 2.10894C2.69957 3.52415 3.61379 4.78802 4.86514 5.78173C4.54206 6.13282 4.27983 6.54012 4.09462 6.98642C2.80557 5.77268 2 4.04563 2 2.12928Z"/>
</mask>
<path d="M2.27136 2.10894L4.18565 1.52973V1.52973L2.27136 2.10894ZM4.86514 5.78173L6.33684 7.13601L7.79338 5.55318L6.1089 4.21551L4.86514 5.78173ZM4.09462 6.98642L2.72358 8.44253L4.83187 10.4276L5.94185 7.75304L4.09462 6.98642ZM4.18565 1.52973C3.85185 0.426538 2.82495 -0.0486298 1.98242 0.00890625C1.55307 0.0382266 1.06041 0.204654 0.653689 0.593633C0.217984 1.01033 0 1.57153 0 2.12928H4C4 2.60878 3.81027 3.1096 3.41836 3.48441C3.05544 3.8315 2.62212 3.97454 2.25495 3.99961C1.53677 4.04866 0.645547 3.64157 0.35707 2.68816L4.18565 1.52973ZM6.1089 4.21551C5.12864 3.43707 4.47951 2.50092 4.18565 1.52973L0.35707 2.68816C0.919621 4.54737 2.09895 6.13897 3.62138 7.34796L6.1089 4.21551ZM5.94185 7.75304C6.03608 7.52601 6.17025 7.31705 6.33684 7.13601L3.39343 4.42745C2.91386 4.9486 2.52359 5.55424 2.24738 6.2198L5.94185 7.75304ZM0 2.12928C0 4.61758 1.04843 6.86525 2.72358 8.44253L5.46565 5.53031C4.56271 4.68012 4 3.47367 4 2.12928H0Z" fill="black" mask="url(#path-3-outside-1_793_491)"/>
<mask id="path-5-outside-2_793_491" maskUnits="userSpaceOnUse" x="14.1423" y="0.00585938" width="8" height="11" fill="black">
<rect fill="white" x="14.1423" y="0.00585938" width="8" height="11"/>
<path fill-rule="evenodd" clip-rule="evenodd" d="M20 2.13402C20 1.97417 19.7694 1.96012 19.7225 2.11294C19.2929 3.51417 18.385 4.76865 17.1423 5.76344C17.4612 6.12746 17.7157 6.54858 17.8886 7.00853C19.1891 5.78397 20 4.05292 20 2.13402Z"/>
</mask>
<path d="M19.7225 2.11294L17.8103 1.52672L17.8103 1.52672L19.7225 2.11294ZM17.1423 5.76344L15.8924 4.2021L14.2604 5.50863L15.6379 7.08125L17.1423 5.76344ZM17.8886 7.00853L16.0166 7.71239L17.0734 10.5232L19.2597 8.46462L17.8886 7.00853ZM21.6347 2.69917C21.3442 3.64652 20.4571 4.05099 19.7409 4.00147C19.3746 3.97614 18.9421 3.8331 18.58 3.48632C18.189 3.11191 18 2.61209 18 2.13402H22C22 1.57603 21.7822 1.0145 21.3465 0.597279C20.9396 0.207685 20.4466 0.0407121 20.0168 0.0109929C19.1735 -0.0473156 18.1476 0.426541 17.8103 1.52672L21.6347 2.69917ZM18.3922 7.32478C19.9 6.11775 21.0703 4.54006 21.6347 2.69917L17.8103 1.52672C17.5155 2.48828 16.87 3.41955 15.8924 4.2021L18.3922 7.32478ZM15.6379 7.08125C15.8008 7.2672 15.9296 7.481 16.0166 7.71239L19.7607 6.30468C19.5018 5.61617 19.1216 4.98772 18.6468 4.44563L15.6379 7.08125ZM18 2.13402C18 3.47635 17.4354 4.68815 16.5175 5.55244L19.2597 8.46462C20.9428 6.8798 22 4.62948 22 2.13402H18Z" fill="black" mask="url(#path-5-outside-2_793_491)"/>
<mask id="path-7-outside-3_793_491" maskUnits="userSpaceOnUse" x="14.733" y="6.99219" width="7" height="7" fill="black">
<rect fill="white" x="14.733" y="6.99219" width="7" height="7"/>
<path fill-rule="evenodd" clip-rule="evenodd" d="M17.733 11.2309C17.7407 11.2309 17.7484 11.2309 17.7561 11.2309C18.808 11.2309 19.6607 10.9535 19.6607 10.6113C19.6607 10.2768 18.8456 10.0042 17.8262 9.99219L17.733 11.2309Z"/>
</mask>
<path fill-rule="evenodd" clip-rule="evenodd" d="M17.733 11.2309C17.7407 11.2309 17.7484 11.2309 17.7561 11.2309C18.808 11.2309 19.6607 10.9535 19.6607 10.6113C19.6607 10.2768 18.8456 10.0042 17.8262 9.99219L17.733 11.2309Z" fill="white"/>
<path d="M17.733 11.2309L15.7387 11.0809L15.5776 13.2226L17.7253 13.2309L17.733 11.2309ZM17.8262 9.99219L17.8497 7.99233L15.9726 7.97024L15.8318 9.84219L17.8262 9.99219ZM17.7253 13.2309C17.7356 13.2309 17.7458 13.2309 17.7561 13.2309V9.23092C17.751 9.23092 17.7459 9.23091 17.7408 9.23089L17.7253 13.2309ZM17.7561 13.2309C18.4332 13.2309 19.1278 13.1445 19.7215 12.9513C20.0074 12.8584 20.3836 12.7045 20.7303 12.4378C21.0487 12.1929 21.6607 11.5936 21.6607 10.6113H17.6607C17.6607 9.80016 18.166 9.36384 18.2917 9.26718C18.4457 9.14875 18.5429 9.12842 18.4841 9.14755C18.3886 9.17865 18.1309 9.23092 17.7561 9.23092V13.2309ZM21.6607 10.6113C21.6607 9.65079 21.0739 9.05543 20.7555 8.80447C20.4141 8.53532 20.0434 8.37945 19.7637 8.28529C19.1831 8.08988 18.5064 8.00005 17.8497 7.99233L17.8027 11.992C18.1654 11.9963 18.4059 12.0488 18.4877 12.0763C18.5392 12.0936 18.436 12.0694 18.2793 11.9458C18.1456 11.8405 17.6607 11.4046 17.6607 10.6113H21.6607ZM15.8318 9.84219L15.7387 11.0809L19.7274 11.3809L19.8206 10.1422L15.8318 9.84219Z" fill="black" mask="url(#path-7-outside-3_793_491)"/>
<mask id="path-9-outside-4_793_491" maskUnits="userSpaceOnUse" x="0.311523" y="8" width="7" height="6" fill="black">
<rect fill="white" x="0.311523" y="8" width="7" height="6"/>
<path fill-rule="evenodd" clip-rule="evenodd" d="M4.1432 10.0018C4.09853 10.0006 4.05337 9.99989 4.00779 9.99989C3.07097 9.99989 2.31152 10.2773 2.31152 10.6195C2.31152 10.9616 3.07097 11.239 4.00779 11.239C4.08638 11.239 4.16371 11.2371 4.23946 11.2333L4.1432 10.0018Z"/>
</mask>
<path fill-rule="evenodd" clip-rule="evenodd" d="M4.1432 10.0018C4.09853 10.0006 4.05337 9.99989 4.00779 9.99989C3.07097 9.99989 2.31152 10.2773 2.31152 10.6195C2.31152 10.9616 3.07097 11.239 4.00779 11.239C4.08638 11.239 4.16371 11.2371 4.23946 11.2333L4.1432 10.0018Z" fill="white"/>
<path d="M4.1432 10.0019L6.13712 9.84608L5.99708 8.0546L4.20087 8.00278L4.1432 10.0019ZM4.23946 11.2334L4.33911 13.2309L6.39369 13.1284L6.23338 11.0775L4.23946 11.2334ZM4.00779 12C4.03417 12 4.0601 12.0004 4.08553 12.0011L4.20087 8.00278C4.13695 8.00093 4.07256 8 4.00779 8V12ZM4.31152 10.6196C4.31152 11.3326 3.90949 11.7561 3.752 11.8921C3.66241 11.9695 3.58867 12.0129 3.5524 12.0325C3.53238 12.0433 3.51732 12.0504 3.50831 12.0543C3.50366 12.0564 3.50019 12.0578 3.49795 12.0587C3.49572 12.0596 3.49455 12.0601 3.49452 12.0601C3.49448 12.0601 3.49543 12.0597 3.49739 12.0591C3.49936 12.0584 3.50223 12.0575 3.50602 12.0564C3.5137 12.0541 3.5245 12.051 3.53854 12.0476C3.567 12.0405 3.60518 12.0326 3.65288 12.0252C3.74947 12.0103 3.8703 12 4.00779 12V8C3.36805 8 2.70108 8.09141 2.12218 8.30286C1.84083 8.40562 1.47266 8.5754 1.13765 8.8647C0.808485 9.14896 0.311523 9.73544 0.311523 10.6196H4.31152ZM4.00779 9.23914C3.8703 9.23914 3.74947 9.22882 3.65288 9.2139C3.60518 9.20653 3.567 9.19859 3.53854 9.19157C3.5245 9.18811 3.5137 9.18508 3.50602 9.18277C3.50223 9.18162 3.49936 9.1807 3.4974 9.18005C3.49543 9.17939 3.49448 9.17905 3.49452 9.17906C3.49455 9.17908 3.49572 9.1795 3.49795 9.1804C3.50019 9.1813 3.50366 9.18274 3.50831 9.18479C3.51732 9.18878 3.53238 9.19582 3.5524 9.20664C3.58867 9.22625 3.66241 9.26966 3.752 9.34703C3.90949 9.48304 4.31152 9.90653 4.31152 10.6196H0.311523C0.311523 11.5037 0.808485 12.0902 1.13765 12.3744C1.47266 12.6637 1.84083 12.8335 2.12218 12.9363C2.70108 13.1477 3.36805 13.2391 4.00779 13.2391V9.23914ZM4.13982 9.23589C4.09743 9.23801 4.05332 9.23914 4.00779 9.23914V13.2391C4.11943 13.2391 4.23 13.2364 4.33911 13.2309L4.13982 9.23589ZM6.23338 11.0775L6.13712 9.84608L2.14928 10.1578L2.24554 11.3893L6.23338 11.0775Z" fill="black" mask="url(#path-9-outside-4_793_491)"/>
<path d="M6.53038 16.7038C4.90673 18.1039 6.08699 20.7561 8.20895 20.4935L10.8683 20.2176C10.9418 20.21 11.0159 20.2105 11.0892 20.2192L13.3986 20.493C15.6505 20.7601 16.8878 17.9505 15.1704 16.4696L14.1595 15.5978C13.7123 15.2121 13.1414 15 12.5509 15H9.41181C8.82757 15 8.26277 15.2099 7.82032 15.5914L6.53038 16.7038Z" stroke="black" stroke-width="2"/>
<mask id="path-12-inside-5_793_491" fill="white">
<path fill-rule="evenodd" clip-rule="evenodd" d="M9.24024 3.93555C6.30841 3.93555 4.00571 6.44651 4.25892 9.36738L4.74729 15.0009L5.19624 17.5737C5.31721 18.2669 5.85855 18.7138 6.45974 18.8043C6.24206 18.3289 6.31731 17.72 6.82791 17.3331L8.20078 16.2927C8.4514 16.1028 8.75723 16 9.07167 16H12.8925C13.2125 16 13.5237 16.1046 13.7787 16.2978L14.8189 17.0861C15.4209 17.5422 15.4795 18.277 15.1816 18.8178C15.9031 18.8672 16.632 18.3922 16.7748 17.5737L17.2237 15.0009L17.714 9.36914C17.9683 6.44766 15.6653 3.93555 12.7328 3.93555H9.24024Z"/>
</mask>
<path d="M4.25892 9.36738L2.2664 9.54011L4.25892 9.36738ZM4.74729 15.0009L2.75477 15.1736L2.76222 15.2596L2.77706 15.3447L4.74729 15.0009ZM5.19624 17.5737L3.22602 17.9175L5.19624 17.5737ZM6.45974 18.8043L6.1619 20.782L9.81714 21.3325L8.27816 17.9716L6.45974 18.8043ZM6.82791 17.3331L8.03585 18.9271H8.03585L6.82791 17.3331ZM8.20078 16.2927L9.40871 17.8867L9.40872 17.8867L8.20078 16.2927ZM13.7787 16.2978L14.9866 14.7038L14.9866 14.7038L13.7787 16.2978ZM14.8189 17.0861L13.611 18.6801L13.611 18.6801L14.8189 17.0861ZM15.1816 18.8178L13.4298 17.8528L11.917 20.599L15.045 20.8132L15.1816 18.8178ZM16.7748 17.5737L14.8046 17.2299V17.2299L16.7748 17.5737ZM17.2237 15.0009L19.194 15.3447L19.2087 15.2599L19.2162 15.1743L17.2237 15.0009ZM17.714 9.36914L15.7215 9.1957V9.1957L17.714 9.36914ZM6.25145 9.19465C6.09952 7.44212 7.48114 5.93555 9.24024 5.93555V1.93555C5.13568 1.93555 1.9119 5.45089 2.2664 9.54011L6.25145 9.19465ZM6.73982 14.8281L6.25145 9.19465L2.2664 9.54011L2.75477 15.1736L6.73982 14.8281ZM7.16647 17.2299L6.71752 14.6571L2.77706 15.3447L3.22602 17.9175L7.16647 17.2299ZM6.75758 16.8266C6.84409 16.8396 6.93215 16.8782 7.00947 16.95C7.0955 17.03 7.14999 17.1355 7.16647 17.2299L3.22602 17.9175C3.50873 19.5377 4.7922 20.5757 6.1619 20.782L6.75758 16.8266ZM8.27816 17.9716C8.33696 18.1 8.36652 18.266 8.32678 18.4525C8.28261 18.6596 8.16487 18.8293 8.03585 18.9271L5.61998 15.739C4.26549 16.7654 4.08651 18.4254 4.64132 19.637L8.27816 17.9716ZM8.03585 18.9271L9.40871 17.8867L6.99285 14.6987L5.61998 15.739L8.03585 18.9271ZM9.40872 17.8867C9.31172 17.9602 9.19336 18 9.07167 18V14C8.32109 14 7.59107 14.2454 6.99284 14.6987L9.40872 17.8867ZM9.07167 18H12.8925V14H9.07167V18ZM12.8925 18C12.7764 18 12.6634 17.962 12.5708 17.8919L14.9866 14.7038C14.384 14.2472 13.6486 14 12.8925 14V18ZM12.5708 17.8919L13.611 18.6801L16.0268 15.4921L14.9866 14.7038L12.5708 17.8919ZM13.611 18.6801C13.5019 18.5975 13.3981 18.4433 13.3663 18.257C13.3387 18.0957 13.372 17.9577 13.4298 17.8528L16.9334 19.7829C17.6405 18.4993 17.5305 16.6315 16.0268 15.4921L13.611 18.6801ZM14.8046 17.2299C14.825 17.113 14.8998 16.9918 15.0051 16.9138C15.096 16.8466 15.2035 16.8146 15.3182 16.8225L15.045 20.8132C16.6879 20.9256 18.4095 19.8405 18.745 17.9175L14.8046 17.2299ZM15.2535 14.6571L14.8046 17.2299L18.745 17.9175L19.194 15.3447L15.2535 14.6571ZM15.7215 9.1957L15.2313 14.8274L19.2162 15.1743L19.7064 9.54257L15.7215 9.1957ZM12.7328 5.93555C14.4923 5.93555 15.8741 7.44281 15.7215 9.1957L19.7064 9.54258C20.0624 5.4525 16.8383 1.93555 12.7328 1.93555V5.93555ZM9.24024 5.93555H12.7328V1.93555H9.24024V5.93555Z" fill="black" mask="url(#path-12-inside-5_793_491)"/>
<mask id="path-14-outside-6_793_491" maskUnits="userSpaceOnUse" x="5.41589" y="19.2695" width="12" height="5" fill="black">
<rect fill="white" x="5.41589" y="19.2695" width="12" height="5"/>
<path fill-rule="evenodd" clip-rule="evenodd" d="M9.41589 21.3919C9.71203 21.7583 10.1652 21.9927 10.673 21.9927H11.2977C11.7975 21.9927 12.2443 21.7657 12.5406 21.4091L11.1621 21.2785C11.0444 21.2673 10.9259 21.2666 10.808 21.2764L9.41589 21.3919Z"/>
</mask>
<path d="M9.41589 21.3919L9.25055 19.3987L5.48636 19.711L7.86027 22.6489L9.41589 21.3919ZM12.5406 21.4091L14.0788 22.6874L16.4988 19.7754L12.7294 19.4181L12.5406 21.4091ZM11.1621 21.2785L11.3509 19.2874L11.1621 21.2785ZM10.808 21.2764L10.9734 23.2695L10.808 21.2764ZM7.86027 22.6489C8.51979 23.4651 9.53551 23.9927 10.673 23.9927V19.9927C10.7948 19.9927 10.9043 20.0516 10.9715 20.1349L7.86027 22.6489ZM10.673 23.9927H11.2977V19.9927H10.673V23.9927ZM11.2977 23.9927C12.417 23.9927 13.4188 23.4816 14.0788 22.6874L11.0025 20.1309C11.0698 20.0498 11.178 19.9927 11.2977 19.9927V23.9927ZM12.7294 19.4181L11.3509 19.2874L10.9734 23.2695L12.3519 23.4002L12.7294 19.4181ZM11.3509 19.2874C11.1154 19.2651 10.8784 19.2637 10.6427 19.2832L10.9734 23.2695H10.9734L11.3509 19.2874ZM10.6427 19.2832L9.25055 19.3987L9.58124 23.385L10.9734 23.2695L10.6427 19.2832Z" fill="black" mask="url(#path-14-outside-6_793_491)"/>
</svg>
