<svg width="32" height="32" viewBox="0 0 32 32" fill="none" xmlns="http://www.w3.org/2000/svg">
<mask id="path-1-inside-1_739_1530" fill="white">
<path fill-rule="evenodd" clip-rule="evenodd" d="M11.0218 11.3525C11.5073 11.1261 12.046 11 12.6132 11C14.3625 11 15.8409 12.1991 16.3204 13.8453L25.7001 15.2812C26.1421 15.0998 26.6241 15 27.1287 15C29.2666 15 30.9997 16.7909 30.9997 19C30.9997 20.8646 29.7651 22.4312 28.0945 22.8745C28.0957 22.9162 28.0964 22.958 28.0964 23C28.0964 25.209 26.3635 26.9997 24.2259 27H24.2254H8.74212H8.74194C4.46618 27 1 23.4183 1 19C1 14.5817 4.46618 11 8.74194 11C9.53545 11 10.3011 11.1234 11.0218 11.3525Z"/>
</mask>
<path d="M11.0218 11.3525L10.4158 13.2585L11.1599 13.4951L11.8675 13.165L11.0218 11.3525ZM16.3204 13.8453L14.4002 14.4047L14.7569 15.6293L16.0178 15.8223L16.3204 13.8453ZM25.7001 15.2812L25.3974 17.2582L25.9462 17.3422L26.4597 17.1314L25.7001 15.2812ZM28.0945 22.8745L27.5815 20.9414L26.0481 21.3484L26.0954 22.9342L28.0945 22.8745ZM24.2259 27V29H24.2261L24.2259 27ZM11.8675 13.165C12.0949 13.0588 12.3456 13 12.6132 13V9C11.7463 9 10.9196 9.19327 10.1762 9.54011L11.8675 13.165ZM12.6132 13C13.4118 13 14.1517 13.5515 14.4002 14.4047L18.2406 13.286C17.5301 10.8468 15.3133 9 12.6132 9V13ZM16.0178 15.8223L25.3974 17.2582L26.0027 13.3043L16.623 11.8684L16.0178 15.8223ZM26.4597 17.1314C26.6658 17.0467 26.8902 17 27.1287 17V13C26.3581 13 25.6184 13.1528 24.9405 13.4311L26.4597 17.1314ZM27.1287 17C28.1007 17 28.9997 17.8331 28.9997 19H32.9997C32.9997 15.7486 30.4325 13 27.1287 13V17ZM28.9997 19C28.9997 19.9755 28.3583 20.7353 27.5815 20.9414L28.6075 24.8076C31.1719 24.1271 32.9997 21.7537 32.9997 19H28.9997ZM26.0954 22.9342C26.096 22.9559 26.0964 22.9779 26.0964 23H30.0964C30.0964 22.9381 30.0954 22.8764 30.0936 22.8148L26.0954 22.9342ZM26.0964 23C26.0964 24.1668 25.1975 24.9999 24.2256 25L24.2261 29C27.5295 28.9996 30.0964 26.2511 30.0964 23H26.0964ZM24.2259 25H24.2254V29H24.2259V25ZM24.2254 25H8.74212V29H24.2254V25ZM8.74212 25H8.74194V29H8.74212V25ZM8.74194 25C5.63206 25 3 22.376 3 19H-1C-1 24.4605 3.3003 29 8.74194 29V25ZM3 19C3 15.624 5.63206 13 8.74194 13V9C3.3003 9 -1 13.5395 -1 19H3ZM8.74194 13C9.3269 13 9.88824 13.0908 10.4158 13.2585L11.6279 9.44656C10.7139 9.15596 9.744 9 8.74194 9V13Z" fill="black" mask="url(#path-1-inside-1_739_1530)"/>
<mask id="path-3-inside-2_739_1530" fill="white">
<path d="M14.0649 24L12.6133 23H15.5165L14.0649 24Z"/>
</mask>
<path d="M12.6133 23V22H9.39895L12.046 23.8235L12.6133 23ZM14.0649 24L13.4976 24.8235L14.0649 25.2143L14.6322 24.8235L14.0649 24ZM15.5165 23L16.0838 23.8235L18.7308 22H15.5165V23ZM12.046 23.8235L13.4976 24.8235L14.6322 23.1765L13.1806 22.1765L12.046 23.8235ZM14.6322 24.8235L16.0838 23.8235L14.9492 22.1765L13.4976 23.1765L14.6322 24.8235ZM15.5165 22H12.6133V24H15.5165V22Z" fill="black" mask="url(#path-3-inside-2_739_1530)"/>
<mask id="path-5-inside-3_739_1530" fill="white">
<path d="M18.9028 24L17.4512 23H20.3544L18.9028 24Z"/>
</mask>
<path d="M17.4512 23V22H14.2368L16.8839 23.8235L17.4512 23ZM18.9028 24L18.3355 24.8235L18.9028 25.2143L19.4701 24.8235L18.9028 24ZM20.3544 23L20.9217 23.8235L23.5687 22H20.3544V23ZM16.8839 23.8235L18.3355 24.8235L19.4701 23.1765L18.0185 22.1765L16.8839 23.8235ZM19.4701 24.8235L20.9217 23.8235L19.7871 22.1765L18.3355 23.1765L19.4701 24.8235ZM20.3544 22H17.4512V24H20.3544V22Z" fill="black" mask="url(#path-5-inside-3_739_1530)"/>
<mask id="path-7-inside-4_739_1530" fill="white">
<path d="M23.7417 24L22.29 23H25.1933L23.7417 24Z"/>
</mask>
<path d="M22.29 23V22H19.0757L21.7227 23.8235L22.29 23ZM23.7417 24L23.1743 24.8235L23.7417 25.2143L24.309 24.8235L23.7417 24ZM25.1933 23L25.7606 23.8235L28.4076 22H25.1933V23ZM21.7227 23.8235L23.1743 24.8235L24.309 23.1765L22.8573 22.1765L21.7227 23.8235ZM24.309 24.8235L25.7606 23.8235L24.626 22.1765L23.1743 23.1765L24.309 24.8235ZM25.1933 22H22.29V24H25.1933V22Z" fill="black" mask="url(#path-7-inside-4_739_1530)"/>
<line x1="10.6777" y1="22" x2="28.0971" y2="22" stroke="black" stroke-width="2"/>
<ellipse cx="12.6132" cy="15" rx="0.967742" ry="1" fill="black"/>
<ellipse cx="27.1289" cy="19" rx="0.967742" ry="1" fill="black"/>
</svg>
