<svg width="31" height="16" viewBox="0 0 31 16" fill="none" xmlns="http://www.w3.org/2000/svg">
<mask id="path-1-inside-1_710_2815" fill="white">
<path fill-rule="evenodd" clip-rule="evenodd" d="M10.3558 0.352487C9.61101 0.123343 8.81991 0 8 0C3.58172 0 0 3.58172 0 8C0 12.4183 3.58172 16 8 16H8.00011H24C26.2091 16 28 14.2091 28 12C28 11.958 27.9994 11.9162 27.9981 11.8745C29.7243 11.4311 31 9.86454 31 8C31 5.79086 29.2091 4 27 4C26.4786 4 25.9804 4.09978 25.5236 4.28128L15.8308 2.84531C15.3353 1.19911 13.8077 0 12 0C11.4139 0 10.8573 0.126038 10.3558 0.352487Z"/>
</mask>
<path d="M10.3558 0.352487L9.76761 2.26405L10.4899 2.4863L11.1787 2.17531L10.3558 0.352487ZM27.9981 11.8745L27.5005 9.93735L25.9497 10.3357L25.999 11.9361L27.9981 11.8745ZM25.5236 4.28128L25.2305 6.25969L25.7624 6.33849L26.2622 6.13993L25.5236 4.28128ZM15.8308 2.84531L13.9157 3.42177L14.2817 4.63763L15.5377 4.82371L15.8308 2.84531ZM8 2C8.61832 2 9.21126 2.09288 9.76761 2.26405L10.9439 -1.55908C10.0108 -1.84619 9.0215 -2 8 -2V2ZM2 8C2 4.68629 4.68629 2 8 2V-2C2.47715 -2 -2 2.47715 -2 8H2ZM8 14C4.68629 14 2 11.3137 2 8H-2C-2 13.5228 2.47715 18 8 18V14ZM8.00011 14H8V18H8.00011V14ZM24 14H8.00011V18H24V14ZM26 12C26 13.1046 25.1046 14 24 14V18C27.3137 18 30 15.3137 30 12H26ZM25.999 11.9361C25.9997 11.9572 26 11.9785 26 12H30C30 11.9375 29.999 11.8751 29.9971 11.8128L25.999 11.9361ZM29 8C29 8.92953 28.364 9.71556 27.5005 9.93735L28.4956 13.8116C31.0845 13.1467 33 10.7995 33 8H29ZM27 6C28.1046 6 29 6.89543 29 8H33C33 4.68629 30.3137 2 27 2V6ZM26.2622 6.13993C26.4878 6.05027 26.7356 6 27 6V2C26.2215 2 25.473 2.14929 24.7851 2.42263L26.2622 6.13993ZM15.5377 4.82371L25.2305 6.25969L25.8167 2.30287L16.1239 0.8669L15.5377 4.82371ZM12 2C12.9009 2 13.6675 2.59718 13.9157 3.42177L17.7459 2.26884C17.0031 -0.19895 14.7145 -2 12 -2V2ZM11.1787 2.17531C11.4268 2.06333 11.7033 2 12 2V-2C11.1246 -2 10.2879 -1.81126 9.53277 -1.47034L11.1787 2.17531Z" fill="#0E1011" mask="url(#path-1-inside-1_710_2815)"/>
<mask id="path-3-inside-2_710_2815" fill="white">
<path d="M13.5 13L12 12H15L13.5 13Z"/>
</mask>
<path d="M12 12V11H8.69722L11.4453 12.8321L12 12ZM13.5 13L12.9453 13.8321L13.5 14.2019L14.0547 13.8321L13.5 13ZM15 12L15.5547 12.8321L18.3028 11H15V12ZM11.4453 12.8321L12.9453 13.8321L14.0547 12.1679L12.5547 11.1679L11.4453 12.8321ZM14.0547 13.8321L15.5547 12.8321L14.4453 11.1679L12.9453 12.1679L14.0547 13.8321ZM15 11H12V13H15V11Z" fill="#0E1011" mask="url(#path-3-inside-2_710_2815)"/>
<mask id="path-5-inside-3_710_2815" fill="white">
<path d="M18.5 13L17 12H20L18.5 13Z"/>
</mask>
<path d="M17 12V11H13.6972L16.4453 12.8321L17 12ZM18.5 13L17.9453 13.8321L18.5 14.2019L19.0547 13.8321L18.5 13ZM20 12L20.5547 12.8321L23.3028 11H20V12ZM16.4453 12.8321L17.9453 13.8321L19.0547 12.1679L17.5547 11.1679L16.4453 12.8321ZM19.0547 13.8321L20.5547 12.8321L19.4453 11.1679L17.9453 12.1679L19.0547 13.8321ZM20 11H17V13H20V11Z" fill="#0E1011" mask="url(#path-5-inside-3_710_2815)"/>
<mask id="path-7-inside-4_710_2815" fill="white">
<path d="M23.5 13L22 12H25L23.5 13Z"/>
</mask>
<path d="M22 12V11H18.6972L21.4453 12.8321L22 12ZM23.5 13L22.9453 13.8321L23.5 14.2019L24.0547 13.8321L23.5 13ZM25 12L25.5547 12.8321L28.3028 11H25V12ZM21.4453 12.8321L22.9453 13.8321L24.0547 12.1679L22.5547 11.1679L21.4453 12.8321ZM24.0547 13.8321L25.5547 12.8321L24.4453 11.1679L22.9453 12.1679L24.0547 13.8321ZM25 11H22V13H25V11Z" fill="#0E1011" mask="url(#path-7-inside-4_710_2815)"/>
<line x1="10" y1="11" x2="28" y2="11" stroke="#0E1011" stroke-width="2"/>
<circle cx="12" cy="4" r="0.5" fill="#0E1011" stroke="#0E1011"/>
<circle cx="27" cy="8" r="0.5" fill="#0E1011" stroke="#0E1011"/>
</svg>
