<svg width="23" height="23" viewBox="0 0 23 23" fill="none" xmlns="http://www.w3.org/2000/svg">
<path fill-rule="evenodd" clip-rule="evenodd" d="M15.4942 4.77397C18.4848 7.83486 18.4848 12.7976 15.4942 15.8584C12.5036 18.9193 7.65491 18.9193 4.66432 15.8584C1.67373 12.7976 1.67373 7.83486 4.66432 4.77397C7.65491 1.71307 12.5036 1.71307 15.4942 4.77397ZM17.8686 16.8645C21.1286 12.812 20.9078 6.81002 17.2064 3.02155C13.2702 -1.00718 6.88834 -1.00718 2.95215 3.02155C-0.984049 7.05028 -0.984049 13.5821 2.95215 17.6109C6.54306 21.2862 12.1694 21.6086 16.1174 18.5781L20.095 22.5557C20.5734 23.0341 21.349 23.0341 21.8274 22.5557C22.3058 22.0773 22.3058 21.3016 21.8274 20.8232L17.8686 16.8645Z" fill="#A9AEB8"/>
</svg>
