<svg width="47" height="47" viewBox="0 0 47 47" fill="none" xmlns="http://www.w3.org/2000/svg">
<path d="M8 38.1602H9.5C9.5 37.3317 8.82843 36.6602 8 36.6602V38.1602ZM8 43.1602H6.5C6.5 43.7668 6.86546 44.3138 7.42597 44.546C7.98649 44.7781 8.63166 44.6498 9.06066 44.2208L8 43.1602ZM13 38.1602V36.6602C12.6022 36.6602 12.2206 36.8182 11.9393 37.0995L13 38.1602ZM4.5 24.1602C4.5 22.2272 6.067 20.6602 8 20.6602V17.6602C4.41015 17.6602 1.5 20.5703 1.5 24.1602H4.5ZM4.5 33.1602V24.1602H1.5V33.1602H4.5ZM8 36.6602C6.067 36.6602 4.5 35.0932 4.5 33.1602H1.5C1.5 36.75 4.41015 39.6602 8 39.6602V36.6602ZM9.5 43.1602V38.1602H6.5V43.1602H9.5ZM11.9393 37.0995L6.93934 42.0995L9.06066 44.2208L14.0607 39.2208L11.9393 37.0995ZM21 36.6602H13V39.6602H21V36.6602ZM24.5 33.1602C24.5 35.0932 22.933 36.6602 21 36.6602V39.6602C24.5898 39.6602 27.5 36.75 27.5 33.1602H24.5ZM24.5 24.1602V33.1602H27.5V24.1602H24.5ZM21 20.6602C22.933 20.6602 24.5 22.2272 24.5 24.1602H27.5C27.5 20.5703 24.5898 17.6602 21 17.6602V20.6602ZM8 20.6602H21V17.6602H8V20.6602Z" fill="black"/>
<path fill-rule="evenodd" clip-rule="evenodd" d="M20 4C17.2386 4 15 6.23858 15 9V23.36C15 26.1214 17.2386 28.36 20 28.36H32.4005L38.1999 34.1594V28.36H39C41.7614 28.36 44 26.1214 44 23.36V9C44 6.23858 41.7614 4 39 4H20Z" fill="white"/>
<path d="M32.4005 28.36L33.4612 27.2993C33.1799 27.018 32.7984 26.86 32.4005 26.86V28.36ZM38.1999 34.1594L37.1392 35.22C37.5682 35.649 38.2134 35.7774 38.7739 35.5452C39.3344 35.313 39.6999 34.7661 39.6999 34.1594H38.1999ZM38.1999 28.36V26.86C37.3715 26.86 36.6999 27.5316 36.6999 28.36H38.1999ZM16.5 9C16.5 7.067 18.067 5.5 20 5.5V2.5C16.4101 2.5 13.5 5.41015 13.5 9H16.5ZM16.5 23.36V9H13.5V23.36H16.5ZM20 26.86C18.067 26.86 16.5 25.293 16.5 23.36H13.5C13.5 26.9499 16.4101 29.86 20 29.86V26.86ZM32.4005 26.86H20V29.86H32.4005V26.86ZM31.3399 29.4207L37.1392 35.22L39.2606 33.0987L33.4612 27.2993L31.3399 29.4207ZM39.6999 34.1594V28.36H36.6999V34.1594H39.6999ZM39 26.86H38.1999V29.86H39V26.86ZM42.5 23.36C42.5 25.293 40.933 26.86 39 26.86V29.86C42.5899 29.86 45.5 26.9498 45.5 23.36H42.5ZM42.5 9V23.36H45.5V9H42.5ZM39 5.5C40.933 5.5 42.5 7.067 42.5 9H45.5C45.5 5.41015 42.5899 2.5 39 2.5V5.5ZM20 5.5H39V2.5H20V5.5Z" fill="black"/>
</svg>
