<svg width="47" height="47" viewBox="0 0 47 47" fill="none" xmlns="http://www.w3.org/2000/svg">
<circle cx="24" cy="10" r="6.5" stroke="black" stroke-width="3"/>
<path d="M9.47902 20.0883C9.91136 17.9987 11.7518 16.5 13.8857 16.5H34.1143C36.2482 16.5 38.0886 17.9987 38.521 20.0883L42.0382 37.0883C42.616 39.881 40.4834 42.5 37.6315 42.5H10.3685C7.51658 42.5 5.38397 39.881 5.96178 37.0883L9.47902 20.0883Z" stroke="black" stroke-width="3"/>
<path d="M16.133 32V21.485H18.278V27.515H18.338L20.693 24.56H23.093L20.483 27.62L23.288 32H20.903L19.223 29.105L18.278 30.17V32H16.133ZM27.4593 35.165C27.0193 35.165 26.6093 35.125 26.2293 35.045C25.8593 34.975 25.5293 34.865 25.2393 34.715C24.9593 34.565 24.7393 34.37 24.5793 34.13C24.4193 33.89 24.3393 33.605 24.3393 33.275C24.3393 32.675 24.6943 32.175 25.4043 31.775V31.715C25.2043 31.585 25.0393 31.42 24.9093 31.22C24.7793 31.02 24.7143 30.765 24.7143 30.455C24.7143 30.185 24.7943 29.93 24.9543 29.69C25.1143 29.44 25.3143 29.23 25.5543 29.06V29C25.2943 28.82 25.0593 28.565 24.8493 28.235C24.6493 27.895 24.5493 27.505 24.5493 27.065C24.5493 26.615 24.6343 26.225 24.8043 25.895C24.9743 25.555 25.1993 25.275 25.4793 25.055C25.7693 24.825 26.0993 24.655 26.4693 24.545C26.8393 24.435 27.2243 24.38 27.6243 24.38C28.0643 24.38 28.4493 24.44 28.7793 24.56H31.4943V26.165H30.3093C30.3793 26.275 30.4343 26.415 30.4743 26.585C30.5243 26.755 30.5493 26.94 30.5493 27.14C30.5493 27.57 30.4743 27.945 30.3243 28.265C30.1743 28.575 29.9643 28.835 29.6943 29.045C29.4343 29.245 29.1243 29.395 28.7643 29.495C28.4143 29.595 28.0343 29.645 27.6243 29.645C27.3343 29.645 27.0343 29.595 26.7243 29.495C26.6243 29.575 26.5543 29.655 26.5143 29.735C26.4743 29.815 26.4543 29.92 26.4543 30.05C26.4543 30.24 26.5343 30.38 26.6943 30.47C26.8643 30.56 27.1593 30.605 27.5793 30.605H28.7793C29.6993 30.605 30.3993 30.755 30.8793 31.055C31.3693 31.345 31.6143 31.825 31.6143 32.495C31.6143 32.885 31.5143 33.24 31.3143 33.56C31.1243 33.89 30.8493 34.17 30.4893 34.4C30.1293 34.64 29.6943 34.825 29.1843 34.955C28.6743 35.095 28.0993 35.165 27.4593 35.165ZM27.6243 28.31C27.9143 28.31 28.1543 28.21 28.3443 28.01C28.5443 27.8 28.6443 27.485 28.6443 27.065C28.6443 26.675 28.5443 26.38 28.3443 26.18C28.1543 25.97 27.9143 25.865 27.6243 25.865C27.3343 25.865 27.0893 25.965 26.8893 26.165C26.6993 26.365 26.6043 26.665 26.6043 27.065C26.6043 27.485 26.6993 27.8 26.8893 28.01C27.0893 28.21 27.3343 28.31 27.6243 28.31ZM27.8043 33.785C28.3043 33.785 28.7143 33.695 29.0343 33.515C29.3543 33.345 29.5143 33.13 29.5143 32.87C29.5143 32.64 29.4143 32.485 29.2143 32.405C29.0243 32.325 28.7443 32.285 28.3743 32.285H27.6093C27.3493 32.285 27.1393 32.275 26.9793 32.255C26.8193 32.245 26.6793 32.225 26.5593 32.195C26.2893 32.435 26.1543 32.68 26.1543 32.93C26.1543 33.21 26.3043 33.42 26.6043 33.56C26.9043 33.71 27.3043 33.785 27.8043 33.785Z" fill="black"/>
</svg>
